function data()
return {
	subMeshes = {
		{
			indices = {
				normal = {
					count = 83844,
					offset = 843828,
				},
				position = {
					count = 83844,
					offset = 676140,
				},
				tangent = {
					count = 83844,
					offset = 927672,
				},
				uv0 = {
					count = 83844,
					offset = 759984,
				},
			},
		},
	},
	vertexAttr = {
		normal = {
			count = 251532,
			numComp = 3,
			offset = 89232,
		},
		position = {
			count = 44928,
			numComp = 3,
			offset = 0,
		},
		tangent = {
			count = 335376,
			numComp = 4,
			offset = 340764,
		},
		uv0 = {
			count = 44304,
			numComp = 2,
			offset = 44928,
		},
	},
}
end
