function data()
return {
	subMeshes = {
		{
			indices = {
				normal = {
					count = 54360,
					offset = 579400,
				},
				position = {
					count = 54360,
					offset = 470680,
				},
				tangent = {
					count = 54360,
					offset = 633760,
				},
				uv0 = {
					count = 54360,
					offset = 525040,
				},
			},
		},
	},
	vertexAttr = {
		normal = {
			count = 163080,
			numComp = 3,
			offset = 90160,
		},
		position = {
			count = 33552,
			numComp = 3,
			offset = 0,
		},
		tangent = {
			count = 217440,
			numComp = 4,
			offset = 253240,
		},
		uv0 = {
			count = 56608,
			numComp = 2,
			offset = 33552,
		},
	},
}
end
