function data()
return {
	subMeshes = {
		{
			indices = {
				normal = {
					count = 10344,
					offset = 111336,
				},
				position = {
					count = 10344,
					offset = 90648,
				},
				tangent = {
					count = 10344,
					offset = 121680,
				},
				uv0 = {
					count = 10344,
					offset = 100992,
				},
			},
		},
	},
	vertexAttr = {
		normal = {
			count = 31032,
			numComp = 3,
			offset = 18240,
		},
		position = {
			count = 8496,
			numComp = 3,
			offset = 0,
		},
		tangent = {
			count = 41376,
			numComp = 4,
			offset = 49272,
		},
		uv0 = {
			count = 9744,
			numComp = 2,
			offset = 8496,
		},
	},
}
end
