function data()
return {
	subMeshes = {
		{
			indices = {
				normal = {
					count = 11520,
					offset = 126720,
				},
				position = {
					count = 11520,
					offset = 103680,
				},
				tangent = {
					count = 11520,
					offset = 138240,
				},
				uv0 = {
					count = 11520,
					offset = 115200,
				},
			},
		},
	},
	vertexAttr = {
		normal = {
			count = 34560,
			numComp = 3,
			offset = 23040,
		},
		position = {
			count = 7680,
			numComp = 3,
			offset = 0,
		},
		tangent = {
			count = 46080,
			numComp = 4,
			offset = 57600,
		},
		uv0 = {
			count = 15360,
			numComp = 2,
			offset = 7680,
		},
	},
}
end
