function data()
return {
	subMeshes = {
		{
			indices = {
				normal = {
					count = 13632,
					offset = 139480,
				},
				position = {
					count = 13632,
					offset = 112216,
				},
				tangent = {
					count = 13632,
					offset = 153112,
				},
				uv0 = {
					count = 13632,
					offset = 125848,
				},
			},
		},
	},
	vertexAttr = {
		normal = {
			count = 40896,
			numComp = 3,
			offset = 16792,
		},
		position = {
			count = 6840,
			numComp = 3,
			offset = 0,
		},
		tangent = {
			count = 54528,
			numComp = 4,
			offset = 57688,
		},
		uv0 = {
			count = 9952,
			numComp = 2,
			offset = 6840,
		},
	},
}
end
