function data()
return {
	subMeshes = {
		{
			indices = {
				normal = {
					count = 1776,
					offset = 937056,
				},
				position = {
					count = 1776,
					offset = 933504,
				},
				tangent = {
					count = 1776,
					offset = 938832,
				},
				uv0 = {
					count = 1776,
					offset = 935280,
				},
			},
		},
		{
			indices = {
				normal = {
					count = 19512,
					offset = 979632,
				},
				position = {
					count = 19512,
					offset = 940608,
				},
				tangent = {
					count = 19512,
					offset = 999144,
				},
				uv0 = {
					count = 19512,
					offset = 960120,
				},
			},
		},
		{
			indices = {
				normal = {
					count = 288,
					offset = 1019232,
				},
				position = {
					count = 288,
					offset = 1018656,
				},
				tangent = {
					count = 288,
					offset = 1019520,
				},
				uv0 = {
					count = 288,
					offset = 1018944,
				},
			},
		},
		{
			indices = {
				normal = {
					count = 7956,
					offset = 1035720,
				},
				position = {
					count = 7956,
					offset = 1019808,
				},
				tangent = {
					count = 7956,
					offset = 1043676,
				},
				uv0 = {
					count = 7956,
					offset = 1027764,
				},
			},
		},
		{
			indices = {
				normal = {
					count = 8016,
					offset = 1067664,
				},
				position = {
					count = 8016,
					offset = 1051632,
				},
				tangent = {
					count = 8016,
					offset = 1075680,
				},
				uv0 = {
					count = 8016,
					offset = 1059648,
				},
			},
		},
		{
			indices = {
				normal = {
					count = 74220,
					offset = 1232136,
				},
				position = {
					count = 74220,
					offset = 1083696,
				},
				tangent = {
					count = 74220,
					offset = 1306356,
				},
				uv0 = {
					count = 74220,
					offset = 1157916,
				},
			},
		},
		{
			indices = {
				normal = {
					count = 4248,
					offset = 1389072,
				},
				position = {
					count = 4248,
					offset = 1380576,
				},
				tangent = {
					count = 4248,
					offset = 1393320,
				},
				uv0 = {
					count = 4248,
					offset = 1384824,
				},
			},
		},
		{
			indices = {
				normal = {
					count = 9696,
					offset = 1416960,
				},
				position = {
					count = 9696,
					offset = 1397568,
				},
				tangent = {
					count = 9696,
					offset = 1426656,
				},
				uv0 = {
					count = 9696,
					offset = 1407264,
				},
			},
		},
		{
			indices = {
				normal = {
					count = 2808,
					offset = 1441968,
				},
				position = {
					count = 2808,
					offset = 1436352,
				},
				tangent = {
					count = 2808,
					offset = 1444776,
				},
				uv0 = {
					count = 2808,
					offset = 1439160,
				},
			},
		},
		{
			indices = {
				normal = {
					count = 109056,
					offset = 1665696,
				},
				position = {
					count = 109056,
					offset = 1447584,
				},
				tangent = {
					count = 109056,
					offset = 1774752,
				},
				uv0 = {
					count = 109056,
					offset = 1556640,
				},
			},
		},
	},
	vertexAttr = {
		normal = {
			count = 98076,
			numComp = 3,
			offset = 333924,
		},
		position = {
			count = 126684,
			numComp = 3,
			offset = 0,
		},
		tangent = {
			count = 501504,
			numComp = 4,
			offset = 432000,
		},
		uv0 = {
			count = 207240,
			numComp = 2,
			offset = 126684,
		},
	},
}
end
