function data()
return {
	subMeshes = {
		{
			indices = {
				normal = {
					count = 139092,
					offset = 1522092,
				},
				position = {
					count = 139092,
					offset = 1243908,
				},
				tangent = {
					count = 139092,
					offset = 1661184,
				},
				uv0 = {
					count = 139092,
					offset = 1383000,
				},
			},
		},
	},
	vertexAttr = {
		normal = {
			count = 417276,
			numComp = 3,
			offset = 270264,
		},
		position = {
			count = 85488,
			numComp = 3,
			offset = 0,
		},
		tangent = {
			count = 556368,
			numComp = 4,
			offset = 687540,
		},
		uv0 = {
			count = 184776,
			numComp = 2,
			offset = 85488,
		},
	},
}
end
