function data()
return {
	subMeshes = {
		{
			indices = {
				normal = {
					count = 359040,
					offset = 3643200,
				},
				position = {
					count = 359040,
					offset = 2925120,
				},
				tangent = {
					count = 359040,
					offset = 4002240,
				},
				uv0 = {
					count = 359040,
					offset = 3284160,
				},
			},
		},
	},
	vertexAttr = {
		normal = {
			count = 1077120,
			numComp = 3,
			offset = 411840,
		},
		position = {
			count = 190080,
			numComp = 3,
			offset = 0,
		},
		tangent = {
			count = 1436160,
			numComp = 4,
			offset = 1488960,
		},
		uv0 = {
			count = 221760,
			numComp = 2,
			offset = 190080,
		},
	},
}
end
