function data()
return {
	subMeshes = {
		{
			indices = {
				normal = {
					count = 65616,
					offset = 674992,
				},
				position = {
					count = 65616,
					offset = 543760,
				},
				tangent = {
					count = 65616,
					offset = 740608,
				},
				uv0 = {
					count = 65616,
					offset = 609376,
				},
			},
		},
	},
	vertexAttr = {
		normal = {
			count = 196848,
			numComp = 3,
			offset = 84448,
		},
		position = {
			count = 34560,
			numComp = 3,
			offset = 0,
		},
		tangent = {
			count = 262464,
			numComp = 4,
			offset = 281296,
		},
		uv0 = {
			count = 49888,
			numComp = 2,
			offset = 34560,
		},
	},
}
end
