function data()
return {
	subMeshes = {
		{
			indices = {
				normal = {
					count = 8424,
					offset = 86992,
				},
				position = {
					count = 8424,
					offset = 70144,
				},
				tangent = {
					count = 8424,
					offset = 95416,
				},
				uv0 = {
					count = 8424,
					offset = 78568,
				},
			},
		},
	},
	vertexAttr = {
		normal = {
			count = 25272,
			numComp = 3,
			offset = 11176,
		},
		position = {
			count = 4488,
			numComp = 3,
			offset = 0,
		},
		tangent = {
			count = 33696,
			numComp = 4,
			offset = 36448,
		},
		uv0 = {
			count = 6688,
			numComp = 2,
			offset = 4488,
		},
	},
}
end
