function data()
return {
	subMeshes = {
		{
			indices = {
				normal = {
					count = 56880,
					offset = 586120,
				},
				position = {
					count = 56880,
					offset = 472360,
				},
				tangent = {
					count = 56880,
					offset = 643000,
				},
				uv0 = {
					count = 56880,
					offset = 529240,
				},
			},
		},
	},
	vertexAttr = {
		normal = {
			count = 170640,
			numComp = 3,
			offset = 74200,
		},
		position = {
			count = 30792,
			numComp = 3,
			offset = 0,
		},
		tangent = {
			count = 227520,
			numComp = 4,
			offset = 244840,
		},
		uv0 = {
			count = 43408,
			numComp = 2,
			offset = 30792,
		},
	},
}
end
