function data()
return {
	subMeshes = {
		{
			indices = {
				normal = {
					count = 56280,
					offset = 563904,
				},
				position = {
					count = 56280,
					offset = 451344,
				},
				tangent = {
					count = 56280,
					offset = 620184,
				},
				uv0 = {
					count = 56280,
					offset = 507624,
				},
			},
		},
	},
	vertexAttr = {
		normal = {
			count = 168840,
			numComp = 3,
			offset = 57384,
		},
		position = {
			count = 28464,
			numComp = 3,
			offset = 0,
		},
		tangent = {
			count = 225120,
			numComp = 4,
			offset = 226224,
		},
		uv0 = {
			count = 28920,
			numComp = 2,
			offset = 28464,
		},
	},
}
end
