function data()
return {
	subMeshes = {
		{
			indices = {
				normal = {
					count = 17952,
					offset = 180416,
				},
				position = {
					count = 17952,
					offset = 144512,
				},
				tangent = {
					count = 17952,
					offset = 198368,
				},
				uv0 = {
					count = 17952,
					offset = 162464,
				},
			},
		},
	},
	vertexAttr = {
		normal = {
			count = 53856,
			numComp = 3,
			offset = 18848,
		},
		position = {
			count = 9792,
			numComp = 3,
			offset = 0,
		},
		tangent = {
			count = 71808,
			numComp = 4,
			offset = 72704,
		},
		uv0 = {
			count = 9056,
			numComp = 2,
			offset = 9792,
		},
	},
}
end
