function data()
return {
	subMeshes = {
		{
			indices = {
				normal = {
					count = 37248,
					offset = 211000,
				},
				position = {
					count = 37248,
					offset = 136504,
				},
				tangent = {
					count = 37248,
					offset = 248248,
				},
				uv0 = {
					count = 37248,
					offset = 173752,
				},
			},
		},
		{
			indices = {
				normal = {
					count = 768,
					offset = 287032,
				},
				position = {
					count = 768,
					offset = 285496,
				},
				tangent = {
					count = 768,
					offset = 287800,
				},
				uv0 = {
					count = 768,
					offset = 286264,
				},
			},
		},
	},
	vertexAttr = {
		normal = {
			count = 33576,
			numComp = 3,
			offset = 47120,
		},
		position = {
			count = 19248,
			numComp = 3,
			offset = 0,
		},
		tangent = {
			count = 55808,
			numComp = 4,
			offset = 80696,
		},
		uv0 = {
			count = 27872,
			numComp = 2,
			offset = 19248,
		},
	},
}
end
