function data()
return {
	subMeshes = {
		{
			indices = {
				normal = {
					count = 35112,
					offset = 230540,
				},
				position = {
					count = 35112,
					offset = 160316,
				},
				tangent = {
					count = 35112,
					offset = 265652,
				},
				uv0 = {
					count = 35112,
					offset = 195428,
				},
			},
		},
		{
			indices = {
				normal = {
					count = 48,
					offset = 300860,
				},
				position = {
					count = 48,
					offset = 300764,
				},
				tangent = {
					count = 48,
					offset = 300908,
				},
				uv0 = {
					count = 48,
					offset = 300812,
				},
			},
		},
	},
	vertexAttr = {
		normal = {
			count = 32448,
			numComp = 3,
			offset = 55740,
		},
		position = {
			count = 22620,
			numComp = 3,
			offset = 0,
		},
		tangent = {
			count = 72128,
			numComp = 4,
			offset = 88188,
		},
		uv0 = {
			count = 33120,
			numComp = 2,
			offset = 22620,
		},
	},
}
end
