function data()
return {
	subMeshes = {
		{
			indices = {
				normal = {
					count = 3312,
					offset = 101504,
				},
				position = {
					count = 3312,
					offset = 94880,
				},
				tangent = {
					count = 3312,
					offset = 104816,
				},
				uv0 = {
					count = 3312,
					offset = 98192,
				},
			},
		},
		{
			indices = {
				normal = {
					count = 15744,
					offset = 139616,
				},
				position = {
					count = 15744,
					offset = 108128,
				},
				tangent = {
					count = 15744,
					offset = 155360,
				},
				uv0 = {
					count = 15744,
					offset = 123872,
				},
			},
		},
	},
	vertexAttr = {
		normal = {
			count = 19056,
			numComp = 3,
			offset = 32144,
		},
		position = {
			count = 11256,
			numComp = 3,
			offset = 0,
		},
		tangent = {
			count = 43680,
			numComp = 4,
			offset = 51200,
		},
		uv0 = {
			count = 20888,
			numComp = 2,
			offset = 11256,
		},
	},
}
end
