function data()
return {
	subMeshes = {
		{
			indices = {
				normal = {
					count = 29568,
					offset = 293632,
				},
				position = {
					count = 29568,
					offset = 234496,
				},
				tangent = {
					count = 29568,
					offset = 323200,
				},
				uv0 = {
					count = 29568,
					offset = 264064,
				},
			},
		},
	},
	vertexAttr = {
		normal = {
			count = 88704,
			numComp = 3,
			offset = 27520,
		},
		position = {
			count = 15360,
			numComp = 3,
			offset = 0,
		},
		tangent = {
			count = 118272,
			numComp = 4,
			offset = 116224,
		},
		uv0 = {
			count = 12160,
			numComp = 2,
			offset = 15360,
		},
	},
}
end
