function data()
return {
	subMeshes = {
		{
			indices = {
				normal = {
					count = 38268,
					offset = 390492,
				},
				position = {
					count = 38268,
					offset = 313956,
				},
				tangent = {
					count = 38268,
					offset = 428760,
				},
				uv0 = {
					count = 38268,
					offset = 352224,
				},
			},
		},
	},
	vertexAttr = {
		normal = {
			count = 114804,
			numComp = 3,
			offset = 46080,
		},
		position = {
			count = 23664,
			numComp = 3,
			offset = 0,
		},
		tangent = {
			count = 153072,
			numComp = 4,
			offset = 160884,
		},
		uv0 = {
			count = 22416,
			numComp = 2,
			offset = 23664,
		},
	},
}
end
