function data()
return {
	subMeshes = {
		{
			indices = {
				normal = {
					count = 40224,
					offset = 403104,
				},
				position = {
					count = 40224,
					offset = 322656,
				},
				tangent = {
					count = 40224,
					offset = 443328,
				},
				uv0 = {
					count = 40224,
					offset = 362880,
				},
			},
		},
	},
	vertexAttr = {
		normal = {
			count = 120672,
			numComp = 3,
			offset = 41088,
		},
		position = {
			count = 20544,
			numComp = 3,
			offset = 0,
		},
		tangent = {
			count = 160896,
			numComp = 4,
			offset = 161760,
		},
		uv0 = {
			count = 20544,
			numComp = 2,
			offset = 20544,
		},
	},
}
end
