function data()
return {
	subMeshes = {
		{
			indices = {
				normal = {
					count = 13968,
					offset = 148944,
				},
				position = {
					count = 13968,
					offset = 121008,
				},
				tangent = {
					count = 13968,
					offset = 162912,
				},
				uv0 = {
					count = 13968,
					offset = 134976,
				},
			},
		},
	},
	vertexAttr = {
		normal = {
			count = 41904,
			numComp = 3,
			offset = 23232,
		},
		position = {
			count = 7968,
			numComp = 3,
			offset = 0,
		},
		tangent = {
			count = 55872,
			numComp = 4,
			offset = 65136,
		},
		uv0 = {
			count = 15264,
			numComp = 2,
			offset = 7968,
		},
	},
}
end
