function data()
return {
	subMeshes = {
		{
			indices = {
				normal = {
					count = 6552,
					offset = 71416,
				},
				position = {
					count = 6552,
					offset = 58312,
				},
				tangent = {
					count = 6552,
					offset = 77968,
				},
				uv0 = {
					count = 6552,
					offset = 64864,
				},
			},
		},
	},
	vertexAttr = {
		normal = {
			count = 19656,
			numComp = 3,
			offset = 12448,
		},
		position = {
			count = 4032,
			numComp = 3,
			offset = 0,
		},
		tangent = {
			count = 26208,
			numComp = 4,
			offset = 32104,
		},
		uv0 = {
			count = 8416,
			numComp = 2,
			offset = 4032,
		},
	},
}
end
