function data()
return {
	subMeshes = {
		{
			indices = {
				normal = {
					count = 10368,
					offset = 120992,
				},
				position = {
					count = 10368,
					offset = 100256,
				},
				tangent = {
					count = 10368,
					offset = 131360,
				},
				uv0 = {
					count = 10368,
					offset = 110624,
				},
			},
		},
	},
	vertexAttr = {
		normal = {
			count = 31104,
			numComp = 3,
			offset = 27680,
		},
		position = {
			count = 7392,
			numComp = 3,
			offset = 0,
		},
		tangent = {
			count = 41472,
			numComp = 4,
			offset = 58784,
		},
		uv0 = {
			count = 20288,
			numComp = 2,
			offset = 7392,
		},
	},
}
end
