function data()
return {
	subMeshes = {
		{
			indices = {
				normal = {
					count = 7392,
					offset = 167568,
				},
				position = {
					count = 7392,
					offset = 152784,
				},
				tangent = {
					count = 7392,
					offset = 174960,
				},
				uv0 = {
					count = 7392,
					offset = 160176,
				},
			},
		},
		{
			indices = {
				normal = {
					count = 1728,
					offset = 185808,
				},
				position = {
					count = 1728,
					offset = 182352,
				},
				tangent = {
					count = 1728,
					offset = 187536,
				},
				uv0 = {
					count = 1728,
					offset = 184080,
				},
			},
		},
		{
			indices = {
				normal = {
					count = 19416,
					offset = 228096,
				},
				position = {
					count = 19416,
					offset = 189264,
				},
				tangent = {
					count = 19416,
					offset = 247512,
				},
				uv0 = {
					count = 19416,
					offset = 208680,
				},
			},
		},
	},
	vertexAttr = {
		normal = {
			count = 16080,
			numComp = 3,
			offset = 57584,
		},
		position = {
			count = 20496,
			numComp = 3,
			offset = 0,
		},
		tangent = {
			count = 79120,
			numComp = 4,
			offset = 73664,
		},
		uv0 = {
			count = 37088,
			numComp = 2,
			offset = 20496,
		},
	},
}
end
