function data()
return {
	subMeshes = {
		{
			indices = {
				normal = {
					count = 7464,
					offset = 192916,
				},
				position = {
					count = 7464,
					offset = 177988,
				},
				tangent = {
					count = 7464,
					offset = 200380,
				},
				uv0 = {
					count = 7464,
					offset = 185452,
				},
			},
		},
		{
			indices = {
				normal = {
					count = 25824,
					offset = 259492,
				},
				position = {
					count = 25824,
					offset = 207844,
				},
				tangent = {
					count = 25824,
					offset = 285316,
				},
				uv0 = {
					count = 25824,
					offset = 233668,
				},
			},
		},
		{
			indices = {
				normal = {
					count = 1824,
					offset = 314788,
				},
				position = {
					count = 1824,
					offset = 311140,
				},
				tangent = {
					count = 1824,
					offset = 316612,
				},
				uv0 = {
					count = 1824,
					offset = 312964,
				},
			},
		},
	},
	vertexAttr = {
		normal = {
			count = 11124,
			numComp = 3,
			offset = 70848,
		},
		position = {
			count = 25056,
			numComp = 3,
			offset = 0,
		},
		tangent = {
			count = 96016,
			numComp = 4,
			offset = 81972,
		},
		uv0 = {
			count = 45792,
			numComp = 2,
			offset = 25056,
		},
	},
}
end
