function data()
return {
	subMeshes = {
		{
			indices = {
				normal = {
					count = 10056,
					offset = 101624,
				},
				position = {
					count = 10056,
					offset = 81512,
				},
				tangent = {
					count = 10056,
					offset = 111680,
				},
				uv0 = {
					count = 10056,
					offset = 91568,
				},
			},
		},
	},
	vertexAttr = {
		normal = {
			count = 30168,
			numComp = 3,
			offset = 11120,
		},
		position = {
			count = 6672,
			numComp = 3,
			offset = 0,
		},
		tangent = {
			count = 40224,
			numComp = 4,
			offset = 41288,
		},
		uv0 = {
			count = 4448,
			numComp = 2,
			offset = 6672,
		},
	},
}
end
