function data()
return {
	subMeshes = {
		{
			indices = {
				normal = {
					count = 8448,
					offset = 89584,
				},
				position = {
					count = 8448,
					offset = 72688,
				},
				tangent = {
					count = 8448,
					offset = 98032,
				},
				uv0 = {
					count = 8448,
					offset = 81136,
				},
			},
		},
	},
	vertexAttr = {
		normal = {
			count = 25344,
			numComp = 3,
			offset = 13552,
		},
		position = {
			count = 5280,
			numComp = 3,
			offset = 0,
		},
		tangent = {
			count = 33792,
			numComp = 4,
			offset = 38896,
		},
		uv0 = {
			count = 8272,
			numComp = 2,
			offset = 5280,
		},
	},
}
end
