function data()
return {
	subMeshes = {
		{
			indices = {
				normal = {
					count = 22596,
					offset = 157360,
				},
				position = {
					count = 22596,
					offset = 112168,
				},
				tangent = {
					count = 22596,
					offset = 179956,
				},
				uv0 = {
					count = 22596,
					offset = 134764,
				},
				uv1 = {
					count = 22596,
					offset = 202552,
				},
			},
		},
	},
	vertexAttr = {
		normal = {
			count = 5340,
			numComp = 3,
			offset = 35636,
		},
		position = {
			count = 16380,
			numComp = 3,
			offset = 0,
		},
		tangent = {
			count = 48080,
			numComp = 4,
			offset = 40976,
		},
		uv0 = {
			count = 19256,
			numComp = 2,
			offset = 16380,
		},
		uv1 = {
			count = 23112,
			numComp = 2,
			offset = 89056,
		},
	},
}
end
