function data()
return {
	subMeshes = {
		{
			indices = {
				normal = {
					count = 6900,
					offset = 73360,
				},
				position = {
					count = 6900,
					offset = 59560,
				},
				tangent = {
					count = 6900,
					offset = 80260,
				},
				uv0 = {
					count = 6900,
					offset = 66460,
				},
			},
		},
	},
	vertexAttr = {
		normal = {
			count = 20700,
			numComp = 3,
			offset = 11260,
		},
		position = {
			count = 4836,
			numComp = 3,
			offset = 0,
		},
		tangent = {
			count = 27600,
			numComp = 4,
			offset = 31960,
		},
		uv0 = {
			count = 6424,
			numComp = 2,
			offset = 4836,
		},
	},
}
end
