function data()
return {
	subMeshes = {
		{
			indices = {
				normal = {
					count = 12912,
					offset = 152968,
				},
				position = {
					count = 12912,
					offset = 127144,
				},
				tangent = {
					count = 12912,
					offset = 165880,
				},
				uv0 = {
					count = 12912,
					offset = 140056,
				},
			},
		},
	},
	vertexAttr = {
		normal = {
			count = 38736,
			numComp = 3,
			offset = 36760,
		},
		position = {
			count = 22056,
			numComp = 3,
			offset = 0,
		},
		tangent = {
			count = 51648,
			numComp = 4,
			offset = 75496,
		},
		uv0 = {
			count = 14704,
			numComp = 2,
			offset = 22056,
		},
	},
}
end
