function data()
return {
	subMeshes = {
		{
			indices = {
				normal = {
					count = 18384,
					offset = 208140,
				},
				position = {
					count = 18384,
					offset = 171372,
				},
				tangent = {
					count = 18384,
					offset = 226524,
				},
				uv0 = {
					count = 18384,
					offset = 189756,
				},
			},
		},
	},
	vertexAttr = {
		normal = {
			count = 55152,
			numComp = 3,
			offset = 42684,
		},
		position = {
			count = 13452,
			numComp = 3,
			offset = 0,
		},
		tangent = {
			count = 73536,
			numComp = 4,
			offset = 97836,
		},
		uv0 = {
			count = 29232,
			numComp = 2,
			offset = 13452,
		},
	},
}
end
