function data()
return {
	subMeshes = {
		{
			indices = {
				normal = {
					count = 19776,
					offset = 238144,
				},
				position = {
					count = 19776,
					offset = 198592,
				},
				tangent = {
					count = 19776,
					offset = 257920,
				},
				uv0 = {
					count = 19776,
					offset = 218368,
				},
				uv1 = {
					count = 19776,
					offset = 277696,
				},
			},
		},
	},
	vertexAttr = {
		normal = {
			count = 59328,
			numComp = 3,
			offset = 39712,
		},
		position = {
			count = 14688,
			numComp = 3,
			offset = 0,
		},
		tangent = {
			count = 79104,
			numComp = 4,
			offset = 99040,
		},
		uv0 = {
			count = 25024,
			numComp = 2,
			offset = 14688,
		},
		uv1 = {
			count = 20448,
			numComp = 2,
			offset = 178144,
		},
	},
}
end
